<mxfile host="app.diagrams.net" modified="2021-05-06T08:00:27.816Z" agent="5.0 (Windows NT 10.0; Win64; x64) AppleWebKit/537.36 (KHTML, like Gecko) Chrome/90.0.4430.93 Safari/537.36" etag="backKqdbHb0Rbi-96KF2" version="14.6.10" type="github">
  <diagram id="R2lEEEUBdFMjLlhIrx00" name="Page-1">
    <mxGraphModel dx="1038" dy="556" grid="1" gridSize="10" guides="1" tooltips="1" connect="1" arrows="1" fold="1" page="1" pageScale="1" pageWidth="850" pageHeight="1100" math="0" shadow="0" extFonts="Permanent Marker^https://fonts.googleapis.com/css?family=Permanent+Marker">
      <root>
        <mxCell id="0" />
        <mxCell id="1" parent="0" />
        <mxCell id="igzyoNDf4KowoVnn_EOb-22" style="edgeStyle=none;rounded=0;orthogonalLoop=1;jettySize=auto;html=1;entryX=0;entryY=1;entryDx=0;entryDy=0;endArrow=none;endFill=0;" edge="1" parent="1" source="igzyoNDf4KowoVnn_EOb-1" target="igzyoNDf4KowoVnn_EOb-13">
          <mxGeometry relative="1" as="geometry" />
        </mxCell>
        <mxCell id="igzyoNDf4KowoVnn_EOb-24" value="" style="edgeStyle=none;rounded=0;orthogonalLoop=1;jettySize=auto;html=1;endArrow=none;endFill=0;" edge="1" parent="1" source="igzyoNDf4KowoVnn_EOb-1" target="igzyoNDf4KowoVnn_EOb-21">
          <mxGeometry relative="1" as="geometry" />
        </mxCell>
        <mxCell id="igzyoNDf4KowoVnn_EOb-28" style="edgeStyle=none;rounded=0;orthogonalLoop=1;jettySize=auto;html=1;exitX=0.25;exitY=0;exitDx=0;exitDy=0;entryX=0.5;entryY=1;entryDx=0;entryDy=0;endArrow=none;endFill=0;" edge="1" parent="1" source="igzyoNDf4KowoVnn_EOb-1" target="igzyoNDf4KowoVnn_EOb-11">
          <mxGeometry relative="1" as="geometry" />
        </mxCell>
        <mxCell id="igzyoNDf4KowoVnn_EOb-29" style="edgeStyle=none;orthogonalLoop=1;jettySize=auto;html=1;exitX=0.5;exitY=0;exitDx=0;exitDy=0;entryX=0;entryY=1;entryDx=0;entryDy=0;rounded=0;endArrow=none;endFill=0;" edge="1" parent="1" source="igzyoNDf4KowoVnn_EOb-1" target="igzyoNDf4KowoVnn_EOb-12">
          <mxGeometry relative="1" as="geometry" />
        </mxCell>
        <mxCell id="igzyoNDf4KowoVnn_EOb-1" value="employee" style="rounded=0;whiteSpace=wrap;html=1;" vertex="1" parent="1">
          <mxGeometry x="320" y="290" width="120" height="30" as="geometry" />
        </mxCell>
        <mxCell id="igzyoNDf4KowoVnn_EOb-8" value="&lt;u&gt;SSN&lt;/u&gt;" style="ellipse;whiteSpace=wrap;html=1;" vertex="1" parent="1">
          <mxGeometry x="250" y="220" width="60" height="40" as="geometry" />
        </mxCell>
        <mxCell id="igzyoNDf4KowoVnn_EOb-9" value="Minit&lt;span style=&quot;color: rgba(0 , 0 , 0 , 0) ; font-family: monospace ; font-size: 0px&quot;&gt;%3CmxGraphModel%3E%3Croot%3E%3CmxCell%20id%3D%220%22%2F%3E%3CmxCell%20id%3D%221%22%20parent%3D%220%22%2F%3E%3CmxCell%20id%3D%222%22%20value%3D%22Bdate%22%20style%3D%22ellipse%3BwhiteSpace%3Dwrap%3Bhtml%3D1%3B%22%20vertex%3D%221%22%20parent%3D%221%22%3E%3CmxGeometry%20x%3D%22370%22%20y%3D%22140%22%20width%3D%2260%22%20height%3D%2230%22%20as%3D%22geometry%22%2F%3E%3C%2FmxCell%3E%3C%2Froot%3E%3C%2FmxGraphModel%3E&lt;/span&gt;" style="ellipse;whiteSpace=wrap;html=1;" vertex="1" parent="1">
          <mxGeometry x="350" y="90" width="60" height="30" as="geometry" />
        </mxCell>
        <mxCell id="igzyoNDf4KowoVnn_EOb-10" value="Fname" style="ellipse;whiteSpace=wrap;html=1;" vertex="1" parent="1">
          <mxGeometry x="280" y="110" width="60" height="30" as="geometry" />
        </mxCell>
        <mxCell id="igzyoNDf4KowoVnn_EOb-11" value="Sex" style="ellipse;whiteSpace=wrap;html=1;" vertex="1" parent="1">
          <mxGeometry x="280" y="180" width="60" height="30" as="geometry" />
        </mxCell>
        <mxCell id="igzyoNDf4KowoVnn_EOb-12" value="Salary" style="ellipse;whiteSpace=wrap;html=1;" vertex="1" parent="1">
          <mxGeometry x="430" y="180" width="60" height="30" as="geometry" />
        </mxCell>
        <mxCell id="igzyoNDf4KowoVnn_EOb-13" value="Address" style="ellipse;whiteSpace=wrap;html=1;" vertex="1" parent="1">
          <mxGeometry x="450" y="230" width="60" height="30" as="geometry" />
        </mxCell>
        <mxCell id="igzyoNDf4KowoVnn_EOb-15" value="Lname" style="ellipse;whiteSpace=wrap;html=1;" vertex="1" parent="1">
          <mxGeometry x="420" y="110" width="60" height="30" as="geometry" />
        </mxCell>
        <mxCell id="igzyoNDf4KowoVnn_EOb-25" style="edgeStyle=none;rounded=0;orthogonalLoop=1;jettySize=auto;html=1;exitX=0;exitY=0;exitDx=0;exitDy=0;entryX=0.5;entryY=1;entryDx=0;entryDy=0;endArrow=none;endFill=0;" edge="1" parent="1" source="igzyoNDf4KowoVnn_EOb-21" target="igzyoNDf4KowoVnn_EOb-10">
          <mxGeometry relative="1" as="geometry" />
        </mxCell>
        <mxCell id="igzyoNDf4KowoVnn_EOb-26" style="edgeStyle=none;rounded=0;orthogonalLoop=1;jettySize=auto;html=1;exitX=0.5;exitY=0;exitDx=0;exitDy=0;entryX=0.5;entryY=1;entryDx=0;entryDy=0;endArrow=none;endFill=0;" edge="1" parent="1" source="igzyoNDf4KowoVnn_EOb-21" target="igzyoNDf4KowoVnn_EOb-9">
          <mxGeometry relative="1" as="geometry" />
        </mxCell>
        <mxCell id="igzyoNDf4KowoVnn_EOb-27" style="edgeStyle=none;rounded=0;orthogonalLoop=1;jettySize=auto;html=1;exitX=1;exitY=0;exitDx=0;exitDy=0;endArrow=none;endFill=0;" edge="1" parent="1" source="igzyoNDf4KowoVnn_EOb-21" target="igzyoNDf4KowoVnn_EOb-15">
          <mxGeometry relative="1" as="geometry" />
        </mxCell>
        <mxCell id="igzyoNDf4KowoVnn_EOb-21" value="Name" style="ellipse;whiteSpace=wrap;html=1;" vertex="1" parent="1">
          <mxGeometry x="350" y="180" width="60" height="30" as="geometry" />
        </mxCell>
        <mxCell id="igzyoNDf4KowoVnn_EOb-32" style="edgeStyle=none;rounded=0;orthogonalLoop=1;jettySize=auto;html=1;exitX=1;exitY=0.5;exitDx=0;exitDy=0;entryX=1;entryY=1;entryDx=0;entryDy=0;endArrow=none;endFill=0;" edge="1" parent="1" source="igzyoNDf4KowoVnn_EOb-30" target="igzyoNDf4KowoVnn_EOb-1">
          <mxGeometry relative="1" as="geometry" />
        </mxCell>
        <mxCell id="igzyoNDf4KowoVnn_EOb-30" value="supervision" style="rhombus;whiteSpace=wrap;html=1;" vertex="1" parent="1">
          <mxGeometry x="280" y="500" width="160" height="50" as="geometry" />
        </mxCell>
        <mxCell id="igzyoNDf4KowoVnn_EOb-37" value="" style="endArrow=none;html=1;rounded=0;exitX=0;exitY=0;exitDx=0;exitDy=0;entryX=0.5;entryY=1;entryDx=0;entryDy=0;" edge="1" parent="1" source="igzyoNDf4KowoVnn_EOb-1" target="igzyoNDf4KowoVnn_EOb-8">
          <mxGeometry relative="1" as="geometry">
            <mxPoint x="340" y="180" as="sourcePoint" />
            <mxPoint x="500" y="180" as="targetPoint" />
          </mxGeometry>
        </mxCell>
        <mxCell id="igzyoNDf4KowoVnn_EOb-45" value="Fname" style="ellipse;whiteSpace=wrap;html=1;" vertex="1" parent="1">
          <mxGeometry x="280" y="110" width="60" height="30" as="geometry" />
        </mxCell>
        <mxCell id="igzyoNDf4KowoVnn_EOb-46" value="Minit&lt;span style=&quot;color: rgba(0 , 0 , 0 , 0) ; font-family: monospace ; font-size: 0px&quot;&gt;%3CmxGraphModel%3E%3Croot%3E%3CmxCell%20id%3D%220%22%2F%3E%3CmxCell%20id%3D%221%22%20parent%3D%220%22%2F%3E%3CmxCell%20id%3D%222%22%20value%3D%22Bdate%22%20style%3D%22ellipse%3BwhiteSpace%3Dwrap%3Bhtml%3D1%3B%22%20vertex%3D%221%22%20parent%3D%221%22%3E%3CmxGeometry%20x%3D%22370%22%20y%3D%22140%22%20width%3D%2260%22%20height%3D%2230%22%20as%3D%22geometry%22%2F%3E%3C%2FmxCell%3E%3C%2Froot%3E%3C%2FmxGraphModel%3E&lt;/span&gt;" style="ellipse;whiteSpace=wrap;html=1;" vertex="1" parent="1">
          <mxGeometry x="350" y="90" width="60" height="30" as="geometry" />
        </mxCell>
        <mxCell id="igzyoNDf4KowoVnn_EOb-47" value="Lname" style="ellipse;whiteSpace=wrap;html=1;" vertex="1" parent="1">
          <mxGeometry x="420" y="110" width="60" height="30" as="geometry" />
        </mxCell>
        <mxCell id="igzyoNDf4KowoVnn_EOb-31" style="edgeStyle=none;rounded=0;orthogonalLoop=1;jettySize=auto;html=1;exitX=0;exitY=1;exitDx=0;exitDy=0;entryX=0;entryY=0.5;entryDx=0;entryDy=0;endArrow=none;endFill=0;" edge="1" parent="1" source="igzyoNDf4KowoVnn_EOb-1" target="igzyoNDf4KowoVnn_EOb-30">
          <mxGeometry relative="1" as="geometry" />
        </mxCell>
        <mxCell id="igzyoNDf4KowoVnn_EOb-52" value="supervisor" style="text;strokeColor=none;fillColor=none;spacingLeft=4;spacingRight=4;overflow=hidden;rotatable=0;points=[[0,0.5],[1,0.5]];portConstraint=eastwest;fontSize=12;" vertex="1" parent="1">
          <mxGeometry x="220" y="460" width="70" height="30" as="geometry" />
        </mxCell>
        <mxCell id="igzyoNDf4KowoVnn_EOb-53" value="supervisee" style="text;strokeColor=none;fillColor=none;spacingLeft=4;spacingRight=4;overflow=hidden;rotatable=0;points=[[0,0.5],[1,0.5]];portConstraint=eastwest;fontSize=12;" vertex="1" parent="1">
          <mxGeometry x="370" y="450" width="70" height="30" as="geometry" />
        </mxCell>
        <mxCell id="igzyoNDf4KowoVnn_EOb-54" value="WORKS_FOR" style="shape=rhombus;perimeter=rhombusPerimeter;whiteSpace=wrap;html=1;align=center;" vertex="1" parent="1">
          <mxGeometry x="590" y="230" width="120" height="60" as="geometry" />
        </mxCell>
        <mxCell id="igzyoNDf4KowoVnn_EOb-55" value="" style="shape=link;html=1;rounded=0;endArrow=none;endFill=0;exitX=1;exitY=0.25;exitDx=0;exitDy=0;entryX=0;entryY=0.5;entryDx=0;entryDy=0;" edge="1" parent="1" source="igzyoNDf4KowoVnn_EOb-1" target="igzyoNDf4KowoVnn_EOb-54">
          <mxGeometry relative="1" as="geometry">
            <mxPoint x="380" y="270" as="sourcePoint" />
            <mxPoint x="578" y="225" as="targetPoint" />
          </mxGeometry>
        </mxCell>
        <mxCell id="igzyoNDf4KowoVnn_EOb-56" value="N" style="resizable=0;html=1;align=right;verticalAlign=bottom;" connectable="0" vertex="1" parent="igzyoNDf4KowoVnn_EOb-55">
          <mxGeometry x="1" relative="1" as="geometry" />
        </mxCell>
        <mxCell id="igzyoNDf4KowoVnn_EOb-114" style="edgeStyle=none;rounded=0;orthogonalLoop=1;jettySize=auto;html=1;exitX=0;exitY=0;exitDx=0;exitDy=0;entryX=0.646;entryY=1.025;entryDx=0;entryDy=0;entryPerimeter=0;endArrow=none;endFill=0;" edge="1" parent="1" source="igzyoNDf4KowoVnn_EOb-57" target="igzyoNDf4KowoVnn_EOb-113">
          <mxGeometry relative="1" as="geometry" />
        </mxCell>
        <mxCell id="igzyoNDf4KowoVnn_EOb-57" value="MANAGES" style="shape=rhombus;perimeter=rhombusPerimeter;whiteSpace=wrap;html=1;align=center;" vertex="1" parent="1">
          <mxGeometry x="590" y="380" width="120" height="40" as="geometry" />
        </mxCell>
        <mxCell id="igzyoNDf4KowoVnn_EOb-61" style="edgeStyle=none;rounded=0;orthogonalLoop=1;jettySize=auto;html=1;exitX=0;exitY=0;exitDx=0;exitDy=0;endArrow=none;endFill=0;" edge="1" parent="1" source="igzyoNDf4KowoVnn_EOb-59" target="igzyoNDf4KowoVnn_EOb-60">
          <mxGeometry relative="1" as="geometry" />
        </mxCell>
        <mxCell id="igzyoNDf4KowoVnn_EOb-64" style="edgeStyle=none;rounded=0;orthogonalLoop=1;jettySize=auto;html=1;exitX=1;exitY=0;exitDx=0;exitDy=0;entryX=0.34;entryY=1.045;entryDx=0;entryDy=0;entryPerimeter=0;endArrow=none;endFill=0;" edge="1" parent="1" source="igzyoNDf4KowoVnn_EOb-59" target="igzyoNDf4KowoVnn_EOb-63">
          <mxGeometry relative="1" as="geometry" />
        </mxCell>
        <mxCell id="igzyoNDf4KowoVnn_EOb-65" style="edgeStyle=none;rounded=0;orthogonalLoop=1;jettySize=auto;html=1;exitX=0.5;exitY=0;exitDx=0;exitDy=0;entryX=0.5;entryY=1;entryDx=0;entryDy=0;endArrow=none;endFill=0;" edge="1" parent="1" source="igzyoNDf4KowoVnn_EOb-59" target="igzyoNDf4KowoVnn_EOb-62">
          <mxGeometry relative="1" as="geometry" />
        </mxCell>
        <mxCell id="igzyoNDf4KowoVnn_EOb-79" style="edgeStyle=none;rounded=0;orthogonalLoop=1;jettySize=auto;html=1;exitX=0.5;exitY=1;exitDx=0;exitDy=0;entryX=0.5;entryY=0;entryDx=0;entryDy=0;endArrow=none;endFill=0;" edge="1" parent="1" source="igzyoNDf4KowoVnn_EOb-59" target="igzyoNDf4KowoVnn_EOb-78">
          <mxGeometry relative="1" as="geometry" />
        </mxCell>
        <mxCell id="igzyoNDf4KowoVnn_EOb-111" style="edgeStyle=none;rounded=0;orthogonalLoop=1;jettySize=auto;html=1;exitX=0;exitY=0.5;exitDx=0;exitDy=0;entryX=1;entryY=0.5;entryDx=0;entryDy=0;endArrow=none;endFill=0;" edge="1" parent="1" source="igzyoNDf4KowoVnn_EOb-59" target="igzyoNDf4KowoVnn_EOb-110">
          <mxGeometry relative="1" as="geometry" />
        </mxCell>
        <mxCell id="igzyoNDf4KowoVnn_EOb-59" value="DEPARTMENT" style="whiteSpace=wrap;html=1;align=center;" vertex="1" parent="1">
          <mxGeometry x="820" y="310" width="100" height="30" as="geometry" />
        </mxCell>
        <mxCell id="igzyoNDf4KowoVnn_EOb-60" value="NAME" style="ellipse;whiteSpace=wrap;html=1;align=center;" vertex="1" parent="1">
          <mxGeometry x="730" y="200" width="100" height="40" as="geometry" />
        </mxCell>
        <mxCell id="igzyoNDf4KowoVnn_EOb-62" value="LOCATIONS" style="ellipse;shape=doubleEllipse;margin=3;whiteSpace=wrap;html=1;align=center;" vertex="1" parent="1">
          <mxGeometry x="820" y="140" width="100" height="40" as="geometry" />
        </mxCell>
        <mxCell id="igzyoNDf4KowoVnn_EOb-63" value="&lt;u&gt;NUMBER&lt;/u&gt;" style="ellipse;whiteSpace=wrap;html=1;align=center;" vertex="1" parent="1">
          <mxGeometry x="910" y="210" width="100" height="40" as="geometry" />
        </mxCell>
        <mxCell id="igzyoNDf4KowoVnn_EOb-66" value="" style="shape=link;html=1;rounded=0;endArrow=none;endFill=0;exitX=1;exitY=0.5;exitDx=0;exitDy=0;entryX=0;entryY=0;entryDx=0;entryDy=0;" edge="1" parent="1" source="igzyoNDf4KowoVnn_EOb-54" target="igzyoNDf4KowoVnn_EOb-59">
          <mxGeometry relative="1" as="geometry">
            <mxPoint x="550" y="370" as="sourcePoint" />
            <mxPoint x="710" y="370" as="targetPoint" />
          </mxGeometry>
        </mxCell>
        <mxCell id="igzyoNDf4KowoVnn_EOb-67" value="1" style="resizable=0;html=1;align=right;verticalAlign=bottom;" connectable="0" vertex="1" parent="igzyoNDf4KowoVnn_EOb-66">
          <mxGeometry x="1" relative="1" as="geometry">
            <mxPoint x="-90" y="-50" as="offset" />
          </mxGeometry>
        </mxCell>
        <mxCell id="igzyoNDf4KowoVnn_EOb-68" value="" style="shape=link;html=1;rounded=0;endArrow=none;endFill=0;exitX=1;exitY=0.5;exitDx=0;exitDy=0;entryX=0;entryY=1;entryDx=0;entryDy=0;" edge="1" parent="1" source="igzyoNDf4KowoVnn_EOb-57" target="igzyoNDf4KowoVnn_EOb-59">
          <mxGeometry relative="1" as="geometry">
            <mxPoint x="550" y="370" as="sourcePoint" />
            <mxPoint x="710" y="370" as="targetPoint" />
          </mxGeometry>
        </mxCell>
        <mxCell id="igzyoNDf4KowoVnn_EOb-69" value="1" style="resizable=0;html=1;align=right;verticalAlign=bottom;" connectable="0" vertex="1" parent="igzyoNDf4KowoVnn_EOb-68">
          <mxGeometry x="1" relative="1" as="geometry">
            <mxPoint x="-100" y="50" as="offset" />
          </mxGeometry>
        </mxCell>
        <mxCell id="igzyoNDf4KowoVnn_EOb-75" style="edgeStyle=none;rounded=0;orthogonalLoop=1;jettySize=auto;html=1;exitX=0;exitY=1;exitDx=0;exitDy=0;entryX=0.5;entryY=0;entryDx=0;entryDy=0;endArrow=none;endFill=0;" edge="1" parent="1" source="igzyoNDf4KowoVnn_EOb-71" target="igzyoNDf4KowoVnn_EOb-72">
          <mxGeometry relative="1" as="geometry" />
        </mxCell>
        <mxCell id="igzyoNDf4KowoVnn_EOb-76" style="edgeStyle=none;rounded=0;orthogonalLoop=1;jettySize=auto;html=1;exitX=0.5;exitY=1;exitDx=0;exitDy=0;entryX=0.5;entryY=0;entryDx=0;entryDy=0;endArrow=none;endFill=0;" edge="1" parent="1" source="igzyoNDf4KowoVnn_EOb-71" target="igzyoNDf4KowoVnn_EOb-73">
          <mxGeometry relative="1" as="geometry" />
        </mxCell>
        <mxCell id="igzyoNDf4KowoVnn_EOb-77" style="edgeStyle=none;rounded=0;orthogonalLoop=1;jettySize=auto;html=1;exitX=1;exitY=1;exitDx=0;exitDy=0;entryX=0.5;entryY=0;entryDx=0;entryDy=0;endArrow=none;endFill=0;" edge="1" parent="1" source="igzyoNDf4KowoVnn_EOb-71" target="igzyoNDf4KowoVnn_EOb-74">
          <mxGeometry relative="1" as="geometry" />
        </mxCell>
        <mxCell id="igzyoNDf4KowoVnn_EOb-71" value="PROJECT" style="whiteSpace=wrap;html=1;align=center;" vertex="1" parent="1">
          <mxGeometry x="825" y="490" width="90" height="30" as="geometry" />
        </mxCell>
        <mxCell id="igzyoNDf4KowoVnn_EOb-72" value="&lt;u&gt;NAME&lt;/u&gt;" style="ellipse;whiteSpace=wrap;html=1;align=center;" vertex="1" parent="1">
          <mxGeometry x="740" y="550" width="100" height="40" as="geometry" />
        </mxCell>
        <mxCell id="igzyoNDf4KowoVnn_EOb-73" value="&lt;u&gt;NUMBER&lt;/u&gt;" style="ellipse;whiteSpace=wrap;html=1;align=center;" vertex="1" parent="1">
          <mxGeometry x="850" y="570" width="100" height="40" as="geometry" />
        </mxCell>
        <mxCell id="igzyoNDf4KowoVnn_EOb-74" value="LOCATION" style="ellipse;whiteSpace=wrap;html=1;align=center;" vertex="1" parent="1">
          <mxGeometry x="970" y="550" width="100" height="40" as="geometry" />
        </mxCell>
        <mxCell id="igzyoNDf4KowoVnn_EOb-81" style="edgeStyle=none;rounded=0;orthogonalLoop=1;jettySize=auto;html=1;exitX=0.5;exitY=1;exitDx=0;exitDy=0;entryX=0.5;entryY=0;entryDx=0;entryDy=0;endArrow=none;endFill=0;shape=link;" edge="1" parent="1" source="igzyoNDf4KowoVnn_EOb-78" target="igzyoNDf4KowoVnn_EOb-71">
          <mxGeometry relative="1" as="geometry" />
        </mxCell>
        <mxCell id="igzyoNDf4KowoVnn_EOb-78" value="CONTROLS" style="shape=rhombus;perimeter=rhombusPerimeter;whiteSpace=wrap;html=1;align=center;" vertex="1" parent="1">
          <mxGeometry x="810" y="380" width="120" height="60" as="geometry" />
        </mxCell>
        <mxCell id="igzyoNDf4KowoVnn_EOb-118" style="edgeStyle=none;rounded=0;orthogonalLoop=1;jettySize=auto;html=1;exitX=1;exitY=0;exitDx=0;exitDy=0;entryX=0;entryY=1;entryDx=0;entryDy=0;endArrow=none;endFill=0;" edge="1" parent="1" source="igzyoNDf4KowoVnn_EOb-82" target="igzyoNDf4KowoVnn_EOb-117">
          <mxGeometry relative="1" as="geometry" />
        </mxCell>
        <mxCell id="igzyoNDf4KowoVnn_EOb-82" value="WROKS_ON" style="shape=rhombus;perimeter=rhombusPerimeter;whiteSpace=wrap;html=1;align=center;" vertex="1" parent="1">
          <mxGeometry x="590" y="460" width="120" height="60" as="geometry" />
        </mxCell>
        <mxCell id="igzyoNDf4KowoVnn_EOb-84" value="" style="shape=link;html=1;rounded=0;endArrow=none;endFill=0;exitX=1;exitY=1;exitDx=0;exitDy=0;entryX=0;entryY=0.5;entryDx=0;entryDy=0;" edge="1" parent="1" source="igzyoNDf4KowoVnn_EOb-1" target="igzyoNDf4KowoVnn_EOb-82">
          <mxGeometry relative="1" as="geometry">
            <mxPoint x="550" y="370" as="sourcePoint" />
            <mxPoint x="710" y="370" as="targetPoint" />
          </mxGeometry>
        </mxCell>
        <mxCell id="igzyoNDf4KowoVnn_EOb-85" value="N" style="resizable=0;html=1;align=right;verticalAlign=bottom;" connectable="0" vertex="1" parent="igzyoNDf4KowoVnn_EOb-84">
          <mxGeometry x="1" relative="1" as="geometry" />
        </mxCell>
        <mxCell id="igzyoNDf4KowoVnn_EOb-86" value="" style="shape=link;html=1;rounded=0;endArrow=none;endFill=0;exitX=1;exitY=0.5;exitDx=0;exitDy=0;entryX=0;entryY=0;entryDx=0;entryDy=0;" edge="1" parent="1" source="igzyoNDf4KowoVnn_EOb-82" target="igzyoNDf4KowoVnn_EOb-71">
          <mxGeometry relative="1" as="geometry">
            <mxPoint x="550" y="370" as="sourcePoint" />
            <mxPoint x="710" y="370" as="targetPoint" />
          </mxGeometry>
        </mxCell>
        <mxCell id="igzyoNDf4KowoVnn_EOb-87" value="N" style="resizable=0;html=1;align=right;verticalAlign=bottom;" connectable="0" vertex="1" parent="igzyoNDf4KowoVnn_EOb-86">
          <mxGeometry x="1" relative="1" as="geometry" />
        </mxCell>
        <mxCell id="igzyoNDf4KowoVnn_EOb-91" value="" style="endArrow=none;html=1;rounded=0;entryX=0.5;entryY=0;entryDx=0;entryDy=0;" edge="1" parent="1" target="igzyoNDf4KowoVnn_EOb-98">
          <mxGeometry relative="1" as="geometry">
            <mxPoint x="440" y="320" as="sourcePoint" />
            <mxPoint x="710" y="470" as="targetPoint" />
          </mxGeometry>
        </mxCell>
        <mxCell id="igzyoNDf4KowoVnn_EOb-92" value="1" style="resizable=0;html=1;align=right;verticalAlign=bottom;" connectable="0" vertex="1" parent="igzyoNDf4KowoVnn_EOb-91">
          <mxGeometry x="1" relative="1" as="geometry">
            <mxPoint x="-20" y="-5" as="offset" />
          </mxGeometry>
        </mxCell>
        <mxCell id="igzyoNDf4KowoVnn_EOb-94" value="" style="shape=link;html=1;rounded=0;edgeStyle=orthogonalEdgeStyle;endArrow=none;endFill=0;exitX=0.5;exitY=1;exitDx=0;exitDy=0;entryX=0.5;entryY=0;entryDx=0;entryDy=0;" edge="1" parent="1" source="igzyoNDf4KowoVnn_EOb-98" target="igzyoNDf4KowoVnn_EOb-99">
          <mxGeometry relative="1" as="geometry">
            <mxPoint x="550" y="470" as="sourcePoint" />
            <mxPoint x="520" y="660" as="targetPoint" />
          </mxGeometry>
        </mxCell>
        <mxCell id="igzyoNDf4KowoVnn_EOb-95" value="N" style="resizable=0;html=1;align=right;verticalAlign=bottom;" connectable="0" vertex="1" parent="igzyoNDf4KowoVnn_EOb-94">
          <mxGeometry x="1" relative="1" as="geometry">
            <mxPoint x="-10" y="-10" as="offset" />
          </mxGeometry>
        </mxCell>
        <mxCell id="igzyoNDf4KowoVnn_EOb-98" value="&lt;span&gt;DEPENDENTS_OF&lt;/span&gt;" style="shape=rhombus;double=1;perimeter=rhombusPerimeter;whiteSpace=wrap;html=1;align=center;" vertex="1" parent="1">
          <mxGeometry x="460" y="530" width="120" height="60" as="geometry" />
        </mxCell>
        <mxCell id="igzyoNDf4KowoVnn_EOb-103" style="edgeStyle=none;rounded=0;orthogonalLoop=1;jettySize=auto;html=1;exitX=0;exitY=1;exitDx=0;exitDy=0;entryX=0.396;entryY=0.045;entryDx=0;entryDy=0;entryPerimeter=0;endArrow=none;endFill=0;" edge="1" parent="1" source="igzyoNDf4KowoVnn_EOb-99" target="igzyoNDf4KowoVnn_EOb-102">
          <mxGeometry relative="1" as="geometry" />
        </mxCell>
        <mxCell id="igzyoNDf4KowoVnn_EOb-99" value="DEPENDENTS" style="shape=ext;margin=3;double=1;whiteSpace=wrap;html=1;align=center;" vertex="1" parent="1">
          <mxGeometry x="470" y="670" width="100" height="40" as="geometry" />
        </mxCell>
        <mxCell id="igzyoNDf4KowoVnn_EOb-102" value="&lt;span style=&quot;border-bottom: 1px dotted&quot;&gt;NAME&lt;/span&gt;" style="ellipse;whiteSpace=wrap;html=1;align=center;" vertex="1" parent="1">
          <mxGeometry x="300" y="740" width="100" height="40" as="geometry" />
        </mxCell>
        <mxCell id="igzyoNDf4KowoVnn_EOb-109" style="edgeStyle=none;rounded=0;orthogonalLoop=1;jettySize=auto;html=1;exitX=0.5;exitY=0;exitDx=0;exitDy=0;entryX=0.6;entryY=1.045;entryDx=0;entryDy=0;entryPerimeter=0;endArrow=none;endFill=0;" edge="1" parent="1" source="igzyoNDf4KowoVnn_EOb-104" target="igzyoNDf4KowoVnn_EOb-99">
          <mxGeometry relative="1" as="geometry" />
        </mxCell>
        <mxCell id="igzyoNDf4KowoVnn_EOb-104" value="SEX" style="ellipse;whiteSpace=wrap;html=1;align=center;" vertex="1" parent="1">
          <mxGeometry x="560" y="830" width="100" height="40" as="geometry" />
        </mxCell>
        <mxCell id="igzyoNDf4KowoVnn_EOb-107" style="edgeStyle=none;rounded=0;orthogonalLoop=1;jettySize=auto;html=1;exitX=0.5;exitY=0;exitDx=0;exitDy=0;entryX=0;entryY=1;entryDx=0;entryDy=0;endArrow=none;endFill=0;" edge="1" parent="1" source="igzyoNDf4KowoVnn_EOb-105" target="igzyoNDf4KowoVnn_EOb-99">
          <mxGeometry relative="1" as="geometry" />
        </mxCell>
        <mxCell id="igzyoNDf4KowoVnn_EOb-105" value="BIRTH_DATA" style="ellipse;whiteSpace=wrap;html=1;align=center;" vertex="1" parent="1">
          <mxGeometry x="355" y="810" width="100" height="40" as="geometry" />
        </mxCell>
        <mxCell id="igzyoNDf4KowoVnn_EOb-108" style="edgeStyle=none;rounded=0;orthogonalLoop=1;jettySize=auto;html=1;exitX=0.5;exitY=0;exitDx=0;exitDy=0;entryX=0.25;entryY=1;entryDx=0;entryDy=0;endArrow=none;endFill=0;" edge="1" parent="1" source="igzyoNDf4KowoVnn_EOb-106" target="igzyoNDf4KowoVnn_EOb-99">
          <mxGeometry relative="1" as="geometry" />
        </mxCell>
        <mxCell id="igzyoNDf4KowoVnn_EOb-106" value="REPLATIONSHIP" style="ellipse;whiteSpace=wrap;html=1;align=center;" vertex="1" parent="1">
          <mxGeometry x="455" y="830" width="100" height="40" as="geometry" />
        </mxCell>
        <mxCell id="igzyoNDf4KowoVnn_EOb-110" value="NUMBER_OF" style="ellipse;whiteSpace=wrap;html=1;align=center;dashed=1;" vertex="1" parent="1">
          <mxGeometry x="660" y="310" width="100" height="40" as="geometry" />
        </mxCell>
        <mxCell id="igzyoNDf4KowoVnn_EOb-113" value="START_DATE" style="ellipse;whiteSpace=wrap;html=1;align=center;" vertex="1" parent="1">
          <mxGeometry x="530" y="320" width="100" height="40" as="geometry" />
        </mxCell>
        <mxCell id="igzyoNDf4KowoVnn_EOb-115" value="" style="endArrow=none;html=1;rounded=0;exitX=1;exitY=1;exitDx=0;exitDy=0;entryX=0;entryY=0.5;entryDx=0;entryDy=0;" edge="1" parent="1" source="igzyoNDf4KowoVnn_EOb-1" target="igzyoNDf4KowoVnn_EOb-57">
          <mxGeometry relative="1" as="geometry">
            <mxPoint x="550" y="370" as="sourcePoint" />
            <mxPoint x="710" y="370" as="targetPoint" />
          </mxGeometry>
        </mxCell>
        <mxCell id="igzyoNDf4KowoVnn_EOb-116" value="1" style="resizable=0;html=1;align=right;verticalAlign=bottom;" connectable="0" vertex="1" parent="igzyoNDf4KowoVnn_EOb-115">
          <mxGeometry x="1" relative="1" as="geometry" />
        </mxCell>
        <mxCell id="igzyoNDf4KowoVnn_EOb-117" value="HOURS" style="ellipse;whiteSpace=wrap;html=1;align=center;" vertex="1" parent="1">
          <mxGeometry x="690" y="420" width="100" height="40" as="geometry" />
        </mxCell>
      </root>
    </mxGraphModel>
  </diagram>
</mxfile>
